<?xml version="1.0" encoding="UTF-8" standalone="no"?>
<!-- Created with Inkscape (http://www.inkscape.org/) -->

<svg
   xmlns:svg="http://www.w3.org/2000/svg"
   xmlns="http://www.w3.org/2000/svg"
   version="1.0"
   width="180"
   height="180"
   id="svg2515">
  <defs
     id="defs2517" />
  <g
     transform="translate(-303.29242,-522.87406)"
     id="layer1">
    <g
       transform="translate(-946.55357,292.96301)"
       id="g22">
      <path
         d="m 1308.71,361.921 c -30.62,0.115 -52.34,-8.432 -52.75,-22.813 -0.32,-11.131 12.2,-23.32 31.93,-33.229 0.18,2.793 0.86,5.627 2.05,8.501 3.81,9.218 11.38,14.294 22.71,15.231 2.62,0.247 5.88,0.451 9.79,0.609 3.91,0.16 7.98,0.174 12.22,0.051 5.15,-0.06 8.99,0.382 11.53,1.331 2.54,0.949 4.38,2.81 5.53,5.59 1.67,4.039 1.4,7.957 -0.8,11.752 -2.2,3.793 -5.89,6.761 -11.07,8.902 -10.35,4.28 -18.04,2.504 -23.05,-5.328 -1.27,-1.992 -2.16,-3.251 -2.67,-3.777 -0.52,-0.527 -1.04,-0.901 -1.58,-1.124 -0.99,-0.623 -2.63,-0.465 -4.9,0.475 l -4.74,1.958 c 1.3,2.422 2.42,4.584 3.35,6.49 0.94,1.905 1.69,3.552 2.27,4.942 0.06,0.141 0.12,0.287 0.18,0.439 z"
         id="path24"
         style="fill:#0064e4;stroke:#ffffff;stroke-width:0.21602701" />
      <path
         d="m 1344.85,288.392 c 44.87,-6.968 80.91,1.874 81.44,20.44 0.46,16.052 -25.78,34.298 -61.85,44.743 0.86,-1.176 1.63,-2.387 2.31,-3.634 2.01,-3.716 3.15,-7.588 3.41,-11.611 0.25,-4.027 -0.48,-8.122 -2.2,-12.292 -1.99,-4.797 -4.98,-8.29 -8.99,-10.476 -4.01,-2.188 -9.6,-3.355 -16.75,-3.5 l -10.55,-0.297 c -4.77,-0.096 -8.69,-0.255 -11.73,-0.473 -3.05,-0.218 -5.5,-0.609 -7.36,-1.171 -1.86,-0.562 -3.28,-1.308 -4.26,-2.235 -0.97,-0.927 -1.77,-2.149 -2.4,-3.663 -0.79,-1.928 -1.12,-3.814 -0.98,-5.657 8.75,-3.204 18.33,-5.957 28.42,-8.077 0.18,0.273 0.34,0.557 0.51,0.849 0.38,0.577 0.7,1.075 0.95,1.491 0.24,0.418 0.42,0.75 0.52,1.002 0.57,0.654 1.08,1.18 1.54,1.582 1.31,0.645 3.03,0.523 5.18,-0.364 l 4.92,-2.037 c -0.84,-1.741 -1.55,-3.28 -2.13,-4.62 z"
         id="path26"
         style="fill:#4bccff;stroke:#ffffff;stroke-width:0.21602701" />
    </g>
  </g>
</svg>
